<svg width="58" height="16" viewBox="0 0 58 16" fill="none" xmlns="http://www.w3.org/2000/svg">
  <path d="M0 0.5H3.2L5.6 10.5L8 0.5H10.8L13.2 10.5L15.6 0.5H18.8L15.2 15.5H12L9.4 5.5L6.8 15.5H3.6L0 0.5Z" fill="currentColor"/>
  <path d="M21.5 0.5H24.5V15.5H21.5V0.5Z" fill="currentColor"/>
  <path d="M28 9.5C28 6.5 30 4.5 33 4.5C35.5 4.5 37 5.8 37.5 7.5H34.3C34 6.8 33.5 6.5 33 6.5C31.5 6.5 31 7.5 31 9.5C31 11.5 31.5 12.5 33 12.5C33.5 12.5 34 12.2 34.3 11.5H37.5C37 13.2 35.5 14.5 33 14.5C30 14.5 28 12.5 28 9.5Z" fill="currentColor"/>
  <path d="M39.5 0.5H47.5V2.5H42.5V6.5H46.5V8.5H42.5V13.5H47.5V15.5H39.5V0.5Z" fill="currentColor"/>
</svg>
